<svg xmlns="http://www.w3.org/2000/svg" viewBox="0 0 1600 520" role="img" aria-labelledby="t d"><title id="t">Night river crossing with a glowing emergency lantern</title><desc id="d">A dark blue-green mountain river at night with a traveler carrying a bright floating-style lantern.</desc><defs><linearGradient id="sky" x1="0" y1="0" x2="0" y2="1"><stop stop-color="#071b22"/><stop offset=".55" stop-color="#0b3040"/><stop offset="1" stop-color="#16483f"/></linearGradient><linearGradient id="water" x1="0" y1="0" x2="1" y2="1"><stop stop-color="#092a34"/><stop offset=".55" stop-color="#15504e"/><stop offset="1" stop-color="#071d25"/></linearGradient><radialGradient id="glow"><stop stop-color="#fffbd6" stop-opacity=".98"/><stop offset=".22" stop-color="#ffe59a" stop-opacity=".75"/><stop offset=".6" stop-color="#d5f4cf" stop-opacity=".22"/><stop offset="1" stop-color="#d5f4cf" stop-opacity="0"/></radialGradient><linearGradient id="lamp" x1="0" y1="0" x2="0" y2="1"><stop stop-color="#fffde9"/><stop offset="1" stop-color="#f3d987"/></linearGradient><filter id="blur"><feGaussianBlur stdDeviation="18"/></filter></defs><rect width="1600" height="520" fill="url(#sky)"/><circle cx="1320" cy="78" r="3" fill="#fff" opacity=".9"/><circle cx="1190" cy="112" r="2" fill="#fff" opacity=".75"/><circle cx="1450" cy="145" r="2.5" fill="#fff" opacity=".8"/><circle cx="1010" cy="68" r="2" fill="#fff" opacity=".65"/><path d="M0 260L190 125 325 232 520 78 690 226 865 116 1035 244 1230 92 1430 222 1600 130V340H0Z" fill="#0b2629"/><path d="M0 295L160 205 290 270 455 160 625 275 810 184 980 285 1150 190 1330 278 1480 202 1600 260V370H0Z" fill="#123832"/><g fill="#0a201e"><path d="M55 290l28-80 28 80h-18l25 72H48l25-72z"/><path d="M185 280l25-72 25 72h-16l22 66h-62l22-66z"/><path d="M1430 285l29-84 29 84h-18l25 73h-72l25-73z"/><path d="M1510 300l23-68 23 68h-14l20 58h-58l20-58z"/></g><path d="M0 335C260 315 410 374 645 348c250-28 432-3 620 15 124 12 224 6 335-17v174H0Z" fill="url(#water)"/><path d="M0 403c265-32 475 56 735 12 267-45 479 52 865 2" fill="none" stroke="#7fc9b7" stroke-opacity=".16" stroke-width="5"/><path d="M0 452c245-26 432 40 676 11 313-38 512 31 924 2" fill="none" stroke="#d7f2df" stroke-opacity=".1" stroke-width="3"/><ellipse cx="1050" cy="375" rx="250" ry="170" fill="url(#glow)" filter="url(#blur)"/><ellipse cx="1050" cy="442" rx="165" ry="28" fill="#ffe99e" opacity=".18"/><g transform="translate(825 146)"><circle cx="80" cy="42" r="27" fill="#071b19"/><path d="M54 67c23-19 55-17 72 6l29 85-29 103-40-8 17-91-19-51-15 71-31-5 13-93z" fill="#081c1c"/><path d="M69 99L12 177" stroke="#081c1c" stroke-width="20" stroke-linecap="round"/><path d="M121 93l95 85" stroke="#081c1c" stroke-width="18" stroke-linecap="round"/><path d="M84 250l-16 112" stroke="#071b19" stroke-width="27" stroke-linecap="round"/><path d="M124 250l35 108" stroke="#071b19" stroke-width="27" stroke-linecap="round"/><path d="M40 75c-25 25-31 74-26 108l41 8 18-106z" fill="#17392f"/><path d="M32 82l35 13" stroke="#6f8e76" stroke-width="5" opacity=".55"/></g><g transform="translate(1010 286)"><path d="M5 5c0-28 70-28 70 0" fill="none" stroke="#e7d99c" stroke-width="6"/><rect x="0" y="8" width="82" height="105" rx="12" fill="url(#lamp)" stroke="#d7f1d4" stroke-width="4"/><rect x="10" y="20" width="62" height="82" rx="8" fill="#fffce7" opacity=".78"/><path d="M18 83h46" stroke="#d8c77c" stroke-width="3" opacity=".7"/></g><path d="M1085 411c-65 18-112 29-178 36M1094 426c79 6 149 18 215 40" stroke="#ffeeb3" stroke-opacity=".32" stroke-width="7" stroke-linecap="round"/><rect width="1600" height="520" fill="none" stroke="#77b895" stroke-width="3" opacity=".35"/></svg>